<svg id="Capa_1" data-name="Capa 1" xmlns="http://www.w3.org/2000/svg" viewBox="0 0 283.47 284.52"><defs><style>.cls-1{fill:#d8a064;}.cls-2{fill:#00204a;}.cls-3{fill:#ffaf3b;}.cls-10,.cls-4{fill:#005792;}.cls-5{fill:#00bbf0;}.cls-6{fill:#003684;}.cls-7{opacity:0.3;}.cls-8{fill:#c9994b;}.cls-11,.cls-9{fill:none;}.cls-10,.cls-9{stroke:#003684;stroke-miterlimit:10;}</style></defs><path class="cls-1" d="M59.51,234.31c-3.68-6.41-6-15.92-9-31.81A51,51,0,0,1,60,195c.21.37.43.74.65,1.11a71.43,71.43,0,0,0,7.65,10.2c1.57,1.77,3.2,3.5,4.86,5.16a112.64,112.64,0,0,0-10.55,15A27.28,27.28,0,0,0,59.51,234.31Z" transform="translate(-12.06 -6.9)"/><path class="cls-1" d="M100,252.77c-.82.8-1.73,1.66-2.75,2.56-14.81-5.6-24-8.4-30.29-12.84a19.35,19.35,0,0,0,3.56-.84c.85-.27,1.73-.6,2.63-1,.74-.31,1.51-.66,2.28-1a109.89,109.89,0,0,0,16.56-10.52l.16.14.54-.4a64.23,64.23,0,0,0,9.31,6.22,41.43,41.43,0,0,0,8.66,3.46A53.46,53.46,0,0,1,100,252.77Z" transform="translate(-12.06 -6.9)"/><path class="cls-2" d="M73.35,211a.86.86,0,0,0,.13.14c-.06.06-.11.14-.18.2-.24-.26-.5-.51-.75-.77l0-.05c-1.42-1.51-2.76-3-4-4.43,1.61-2,3.29-4,5-6s3.46-4,5.2-6l3.48-4a30.86,30.86,0,0,1,7.33,2C84.18,198.28,78.44,204.77,73.35,211Z" transform="translate(-12.06 -6.9)"/><path class="cls-3" d="M110.61,238.53a41.43,41.43,0,0,1-8.66-3.46,64.23,64.23,0,0,1-9.31-6.22l-.54.4-.16-.14a109.89,109.89,0,0,1-16.56,10.52c-.77.38-1.54.73-2.28,1-.9.38-1.78.71-2.63,1a19.35,19.35,0,0,1-3.56.84c6.27,4.44,15.48,7.24,30.29,12.84-17.66,15.78-63.76,45.49-80.36,28.61C-.71,266.09,35.48,217.28,50.51,202.5c3,15.89,5.32,25.4,9,31.81a27.28,27.28,0,0,1,3.12-7.79,112.64,112.64,0,0,1,10.55-15c-.64-.64-1.27-1.29-1.89-1.94l-.57-.6c-.55-.58-1.08-1.16-1.6-1.75l-.24-.25-.56-.62a71.43,71.43,0,0,1-7.65-10.2c-.22-.37-.44-.74-.65-1.11,7-4.16,14.54-6.08,22.18-5l-3.48,4c-1.74,2-3.49,4-5.2,6s-3.39,4-5,6c1.22,1.43,2.56,2.92,4,4.43l0,.05c.25.26.51.51.75.77.07-.06.12-.14.18-.2a.86.86,0,0,1-.13-.14c5.09-6.24,10.83-12.73,16.18-18.92a41.48,41.48,0,0,1,13.66,9.53,47.81,47.81,0,0,1,4.54,5.32,35.43,35.43,0,0,1,3.63,6.13C115.38,221.79,114.59,230.45,110.61,238.53Z" transform="translate(-12.06 -6.9)"/><path class="cls-4" d="M287.37,75.13C248,76.46,232.74,62.68,226.71,16c24.08-7.48,56.47-13.2,64.37-5.41S295.37,50.06,287.37,75.13Z" transform="translate(-12.06 -6.9)"/><path class="cls-2" d="M226.71,16A155,155,0,0,0,208,23c-12.78,6-47.57,25.81-77.08,51.92-6.64,5.88-13.1,12.09-19.25,18.43-1.81,1.49-3.19,2.7-4.24,3.67-2.59,2.38-3.15,3.34-3.15,3.72s.33.24.33.24c-26.06,21.81-30.31,38-30.31,38a1.74,1.74,0,0,1-.11.18l-4.09,6.56s0,0,0,0l-5.49,8.81h0l-.12.19-2.62,4.2c-3.49,6.74-5.69,12.47-6.32,16.75-1,6.66,1,13.19,4.5,19.36.21.37.43.74.65,1.11,1.07,1.49,3.9,5.37,7.85,9.95,1.61-2,3.29-4,5-6s3.46-4,5.2-6l3.48-4,3.89-4.5c25.81-28.72,50-38.17,52.54-30.31a6.21,6.21,0,0,1,1.61,2.38q4.47,11.72-32.51,49.3c-.37.38-.74.76-1.12,1.13,0,0-8.36,7.86-18.5,15.63l-.84.64,1.27,1.12c.51.45,1,.88,1.54,1.32.34.29.69.57,1,.86l.05,0c.43.34.86.68,1.31,1l.17.13a70.22,70.22,0,0,0,7.39,4.88,10,10,0,0,1,1.9,1.36,41.43,41.43,0,0,0,8.66,3.46,48.19,48.19,0,0,0,11.59,1.6c4.72.12,11.17-1.95,18.81-5.78.32-.15.65-.32,1-.5,6.42-3.42,15.42-9.32,32.08-22.14q2.69-2,5.42-4.17c3.82-3,8-6.28,12.57-9.94l2.69-2.16.33-.26,1-.85c28.73-25.62,58.87-57,76.35-86.71,8.66-14.71,10.67-19.27,14.89-32.49C247.67,70.3,236.16,57.08,226.71,16Zm15.18,72.63v0a.22.22,0,0,0,0,.08,25.35,25.35,0,1,1-25.36-26.64h.67a25.36,25.36,0,0,1,24.72,26C241.91,88.3,241.9,88.48,241.89,88.66Z" transform="translate(-12.06 -6.9)"/><path class="cls-5" d="M182.83,259.1A378.21,378.21,0,0,1,151.55,289a10.56,10.56,0,0,1-16.69-4.46c-.1-.3-.21-.61-.31-.93-3.39-11.09-1-45.76,1.15-46.62,4-1.64.82-.27,5.31-2.59.32-.15.65-.31,1-.5,14.8-8.73,34-23.19,54.14-39.53C196.13,194.32,203.54,237.16,182.83,259.1Z" transform="translate(-12.06 -6.9)"/><path class="cls-6" d="M75.08,144.78Z" transform="translate(-12.06 -6.9)"/><path class="cls-7" d="M100.05,233.71a70.22,70.22,0,0,1-7.39-4.88l-.17-.13c-.45-.34-.88-.68-1.31-1,.43.35.86.7,1.29,1l.17.14a64.23,64.23,0,0,0,9.31,6.22A10,10,0,0,0,100.05,233.71Zm-12.78-9.37c-2.18-1.94-4.41-4-7.14-6.41q-1.68-1.45-3.27-3l-.13-.13-.36-.35c-1.06-1-2.08-2.06-3.08-3.09l-.74-.79,0-.05c-1.42-1.51-2.76-3-4-4.43-4-4.58-6.78-8.46-7.85-9.95a71.43,71.43,0,0,0,7.65,10.2l.56.62c.6.68,1.22,1.34,1.84,2l.57.6c.62.65,1.25,1.3,1.89,1.94q2.22,2.24,4.46,4.3l.36.34c1.94,1.8,3.87,3.52,5.71,5.15q1.8,1.6,3.51,3.07c1,.83,1.93,1.64,2.86,2.41-.52-.44-1-.87-1.54-1.32Z" transform="translate(-12.06 -6.9)"/><path class="cls-8" d="M52.89,197.78Z" transform="translate(-12.06 -6.9)"/><path class="cls-9" d="M226.71,16h0" transform="translate(-12.06 -6.9)"/><path class="cls-5" d="M216,62.11a26.59,26.59,0,1,0,25.92,27.25A26.6,26.6,0,0,0,216,62.11Zm0,47.23A21.86,21.86,0,0,1,194.71,87C195,74.87,205,68,217,68.28S235.91,75.89,235.61,88,228.09,109.65,216,109.34Z" transform="translate(-12.06 -6.9)"/><path class="cls-10" d="M237.15,89.24a21.86,21.86,0,1,1-21.31-22.4A21.86,21.86,0,0,1,237.15,89.24Z" transform="translate(-12.06 -6.9)"/><path class="cls-2" d="M140.24,157.64c-7.84-1.43-28,9.15-49.32,32.84l-1.39,1.61a30.86,30.86,0,0,0-7.33-2l3.89-4.5c25.81-28.72,50-38.17,52.54-30.31A6.21,6.21,0,0,1,140.24,157.64Z" transform="translate(-12.06 -6.9)"/><path class="cls-5" d="M111.45,213l-.09.08c-.92.85-9,8.38-18.7,15.76l0,0-.54.4-.16-.14c-1.58-1.41-3.19-2.9-5-4.52l-2-1.75c-2.46-2.14-4.81-4.43-7-6.69-.39-.4-.77-.81-1.14-1.21l-.13-.13c-1.15-1.25-2.24-2.47-3.25-3.66a.86.86,0,0,1-.13-.14c5.09-6.24,10.83-12.73,16.18-18.92l1.39-1.61c21.29-23.69,41.48-34.27,49.32-32.84a3.78,3.78,0,0,1,3.22,2.53C150.48,166.73,139.88,184.3,111.45,213Z" transform="translate(-12.06 -6.9)"/><path class="cls-5" d="M93.19,228.17l-.7.53h0l-.53.4a109.89,109.89,0,0,1-16.56,10.52c-.77.38-1.54.73-2.28,1-.9.38-1.78.71-2.63,1a19.35,19.35,0,0,1-3.56.84,8,8,0,0,1-5-.72,6,6,0,0,1-2.22-3,8.79,8.79,0,0,1-.14-4.48,27.28,27.28,0,0,1,3.12-7.79,112.64,112.64,0,0,1,10.55-15l0-.06.06-.08s0,0,0,0,.12-.14.18-.2c.26-.33.53-.67.81-1A162.46,162.46,0,0,0,88.11,223.7l1.57,1.4C90.88,226.16,92.05,227.19,93.19,228.17Z" transform="translate(-12.06 -6.9)"/><path class="cls-11" d="M87.27,224.34l0,0q-1.71-1.47-3.51-3.07c-1.84-1.63-3.77-3.35-5.71-5.15l-.36-.34c-.93-.9-2.66-2.61-4.41-4.36-1.54-1.57-3.1-3.16-4.11-4.23l-.24-.25-.56-.62c.07,0,2.1,2.06,4.18,4.18l0,.05c.25.26.51.51.75.77l3.07,3.11.36.35.13.13q1.59,1.53,3.27,3C82.86,220.31,85.09,222.4,87.27,224.34Z" transform="translate(-12.06 -6.9)"/><path class="cls-8" d="M52.89,197.78Z" transform="translate(-12.06 -6.9)"/><path class="cls-5" d="M46.91,105.62A378.24,378.24,0,0,0,15,134.81a10.55,10.55,0,0,0,3.33,16.95l.9.37c10.83,4.14,44.31,4.26,45.48,2.28,2.29-3.87,1-1.46,3.58-5.78.18-.31,1.08-1.76,1.28-2.08a236.38,236.38,0,0,1,38.8-49.29S70.21,86.45,46.91,105.62Z" transform="translate(-12.06 -6.9)"/><path class="cls-11" d="M59.51,234.31a24.54,24.54,0,0,0,7.4,8.18" transform="translate(-12.06 -6.9)"/><path class="cls-11" d="M97.3,255.37l-.1,0" transform="translate(-12.06 -6.9)"/><path class="cls-2" d="M71.26,204.74l3.68-5.24L72.35,198l-1.5,3.5a1.57,1.57,0,0,0,.24,1.82,1.53,1.53,0,0,0,1.82.24,8.22,8.22,0,0,0,2.28-2.42c.62-.9,1.24-1.81,1.89-2.69a26.19,26.19,0,0,1,1.9-2.31c.35-.37.71-.74,1.09-1.09.21-.19.43-.39.65-.57l.13-.1c.08-.15.12.15-.3,0l-.67-2.5a13.22,13.22,0,0,1-1.3,1.4l2.51.66a.36.36,0,0,1,0-.33,1.54,1.54,0,0,0-.54-2.05,1.52,1.52,0,0,0-2,.54,3.62,3.62,0,0,0-.33,2.64,1.51,1.51,0,0,0,2.5.66A12.25,12.25,0,0,0,82,194a1.53,1.53,0,0,0-.66-2.51c-1.39-.51-2.61.7-3.53,1.57a23.84,23.84,0,0,0-2.38,2.65c-.76,1-1.48,2-2.18,3a7.8,7.8,0,0,1-1.86,2.3l2,2.05,1.5-3.5a1.56,1.56,0,0,0-.54-2.06,1.54,1.54,0,0,0-2.05.54l-3.69,5.24a1.54,1.54,0,0,0,.54,2.06,1.55,1.55,0,0,0,2.06-.54Z" transform="translate(-12.06 -6.9)"/><path class="cls-2" d="M77.71,197c.41-2.07,2.16-3.39,4-4.46,2.27-1.32,4.55-2.58,6.73-4a1.54,1.54,0,0,0,.54-2.06,1.51,1.51,0,0,0-2-.53c-2.35,1.57-4.85,2.88-7.26,4.35-2.22,1.36-4.34,3.28-4.87,5.95a1.54,1.54,0,0,0,1,1.84A1.52,1.52,0,0,0,77.71,197Z" transform="translate(-12.06 -6.9)"/><path class="cls-2" d="M70,206.46a1.5,1.5,0,0,0,0-3,1.5,1.5,0,0,0,0,3Z" transform="translate(-12.06 -6.9)"/><path class="cls-2" d="M144.68,148.69A28.73,28.73,0,0,0,126.57,151c-1.24.6-.78,2.37.35,2.74,2.89.94,5.86.59,8.84.65,2.19,0,4.88.44,6.26,2.35l2.35-1.82c-5.36-4.36-12.29-3.37-18.5-1.73-3.28.87-6.63,1.61-9.85,2.68-2.45.82-4.86,2.18-5.57,4.85a1.51,1.51,0,0,0,1.45,1.89,14.91,14.91,0,0,0,6.44-1.39l-1.52-2.59a128.64,128.64,0,0,0-12.48,7.43c-1.58,1.08-.16,3.6,1.52,2.6l5.91-3.53c1.41-.85.5-3.3-1.16-2.74a55.43,55.43,0,0,0-20,11.95A1.51,1.51,0,0,0,92,176.89a33.42,33.42,0,0,0,9.87-5.4c1.34-1.06-.39-3.27-1.82-2.36a38.22,38.22,0,0,0-5.61,4.37c-1.42,1.32.71,3.44,2.12,2.12a33.82,33.82,0,0,1,5-3.9l-1.82-2.35A29,29,0,0,1,91.23,174l1.46,2.51a51.64,51.64,0,0,1,18.72-11.18l-1.16-2.74-5.91,3.52,1.52,2.6a125.58,125.58,0,0,1,12.48-7.44c1.74-.91.21-3.37-1.52-2.59a11.4,11.4,0,0,1-4.92,1l1.44,1.9c.52-2,2.89-2.61,4.62-3.09,2.89-.8,5.8-1.57,8.7-2.33,5-1.32,11.19-2.63,15.59,1,1.21,1,3.44-.32,2.36-1.81a9.68,9.68,0,0,0-7.06-3.72c-3.28-.39-6.63.38-9.83-.66l.36,2.74a25.32,25.32,0,0,1,15.8-2c1.89.36,2.7-2.53.8-2.9Z" transform="translate(-12.06 -6.9)"/><path class="cls-2" d="M99.8,166.61q-6,7.2-11.67,14.66c-1,1.34,1.3,3.15,2.36,1.82a64.58,64.58,0,0,1,7-7.56c1.43-1.3-.69-3.42-2.12-2.12a64.58,64.58,0,0,0-7,7.56l2.36,1.81q5.44-7.14,11.2-14.05a1.56,1.56,0,0,0,0-2.12,1.53,1.53,0,0,0-2.13,0Z" transform="translate(-12.06 -6.9)"/><path class="cls-2" d="M71.76,204.23a220.14,220.14,0,0,1,43.9-42.54q7-5.06,14.28-9.55c1.64-1,.14-3.6-1.51-2.59a222.38,222.38,0,0,0-47.52,39.22Q75,195.21,69.63,202.11c-1.17,1.5.94,3.64,2.13,2.12Z" transform="translate(-12.06 -6.9)"/><path class="cls-2" d="M116.26,161.41c3.4-2.94,8-4.39,12.15-6,2.2-.85,4.4-1.74,6.64-2.45.29-.09.88-.27,1-.17s.17,1,.27,1.23a2.58,2.58,0,0,0,2.26,1.58c1.91.22,1.9-2.78,0-3,.51.06.5.26.34-.39a4.6,4.6,0,0,0-.22-.72,2.79,2.79,0,0,0-1-1.24,3.7,3.7,0,0,0-3-.32,57.65,57.65,0,0,0-7.32,2.66c-4.59,1.78-9.49,3.42-13.27,6.67-1.46,1.27.67,3.38,2.12,2.13Z" transform="translate(-12.06 -6.9)"/><path class="cls-2" d="M140.65,154.91a7.86,7.86,0,0,0-13-3.11,1.52,1.52,0,0,0,1.06,2.56l5.54.5c1.73.16,2-2.47.4-2.94-8.27-2.49-16.45,3.75-22.8,8.25C104.58,165.31,97.77,171,91,176.79c-1.65,1.41-3.34,2.77-4.29,4.77-.87,1.83-1.22,4-2.62,5.57a1.51,1.51,0,0,0,1.82,2.36A17.46,17.46,0,0,0,93.17,183a1.5,1.5,0,0,0-.54-2.05,4.7,4.7,0,0,0-4.85.28l2,2.06.69-1.34c.74-1.43-1.22-3.21-2.35-1.82a138.51,138.51,0,0,1-17.89,18.19c-1,.89-.14,2.51,1.06,2.56a8.25,8.25,0,0,0,5.7-2l-2.12-2.13q-3.09,3.42-6.28,6.73c-1.34,1.39.78,3.52,2.12,2.12,2.13-2.2,4.22-4.45,6.28-6.72a1.5,1.5,0,0,0-2.12-2.13,5.11,5.11,0,0,1-3.58,1.15l1.06,2.56a138.51,138.51,0,0,0,17.89-18.19l-2.36-1.82-.69,1.34c-.64,1.23.74,3,2.05,2a1.73,1.73,0,0,1,1.83-.28l-.54-2a14.58,14.58,0,0,1-6.2,5.38l1.82,2.35a12.56,12.56,0,0,0,2.4-4.41,10.19,10.19,0,0,1,2.71-4.38c3-2.77,6.29-5.36,9.47-8A159.07,159.07,0,0,1,121,157.7c3.83-2.25,8.32-4.24,12.81-2.89l.4-2.95-5.54-.5,1.06,2.56a4.81,4.81,0,0,1,8,1.78c.63,1.82,3.53,1,2.9-.79Z" transform="translate(-12.06 -6.9)"/></svg>