<svg xmlns="http://www.w3.org/2000/svg" viewBox="0 0 842.62 662"><defs><style>.cls-1{fill:#00bbf0;}.cls-2{isolation:isolate;opacity:0.2;}.cls-3{fill:#e6e6e6;}.cls-4{fill:#3f3d56;}.cls-5{fill:#e6e8ec;}.cls-6{fill:#fff;}.cls-7{fill:#005792;}.cls-8{fill:none;stroke:#3f3d56;stroke-miterlimit:10;}.cls-9{fill:#ffb6b6;}.cls-10{fill:#2f2e41;}</style></defs><g id="Capa_2" data-name="Capa 2"><g id="Capa_1-2" data-name="Capa 1"><ellipse class="cls-1" cx="429.62" cy="331" rx="413" ry="331"/><path class="cls-2" d="M216.9,401.6s1.76,35.36-73.67,79c0,0-.09.19,552.23,0,0,0-63.06-44.79-67.18-94.89"/><path class="cls-3" d="M626,376.32V79.17a16.59,16.59,0,0,0,12.41-16.05h0A17.41,17.41,0,0,0,621.79,46H224a17.41,17.41,0,0,0-16.58,17.12h0A16.53,16.53,0,0,0,224,79.66h0l-9.21,296.92L140.89,471.2H693.13S692.74,472.16,626,376.32Z"/><ellipse class="cls-2" cx="437.87" cy="428.45" rx="121.78" ry="9.37"/><polygon class="cls-2" points="224.04 79.33 625.95 91.03 626.13 78.61 224.04 79.33"/><path class="cls-4" d="M514.46,184v36.38a1.25,1.25,0,0,1-1.23,1.27h-.87V412.14A19.89,19.89,0,0,1,492.48,432H373.41a19.89,19.89,0,0,1-19.88-19.88V228H353c-.49.42-.89,0-.47-.47V206.7c-.43-.5,0-.9.47-.82h.58v-8.42H353c-.52.5-.94.08-1.52-.44V176.51a5.46,5.46,0,0,1,1.52-1.14h.58V164.85h-.59c-.46,0-.84-.34-.46-.8h0V152.85c-.38-.46.46-.62.46-.62h.59V129.81a19.77,19.77,0,0,1,19.88-19.65H492.48a19.78,19.78,0,0,1,19.88,19.65v52.93h.87A1.24,1.24,0,0,1,514.46,184Z"/><rect class="cls-5" x="417.69" y="119.63" width="22.09" height="4.21" rx="1.41"/><circle class="cls-5" cx="445.97" cy="121.93" r="2.55"/><path class="cls-6" d="M502.89,133.3V414.14a12.6,12.6,0,0,1-12.58,12.62H376.63a12.58,12.58,0,0,1-12.58-12.58V133.3a12.6,12.6,0,0,1,12.58-12.62H393.5v2.25a10.37,10.37,0,0,0,10.38,10.37H462a10.37,10.37,0,0,0,10.38-10.37v-2.25h17.92a12.59,12.59,0,0,1,12.58,12.61Z"/><rect class="cls-3" x="375.62" y="305.8" width="115.7" height="14.73"/><rect class="cls-3" x="375.62" y="332.09" width="115.7" height="14.73"/><rect class="cls-3" x="375.62" y="358.39" width="115.7" height="14.73"/><rect class="cls-3" x="375.62" y="197.46" width="115.7" height="76.78"/><path class="cls-7" d="M217.1,90.18l-59.33.36s-97.66,52-29.11,159.58c0,0,28-6.64,59,16.21C187.62,266.33,205.68,94.23,217.1,90.18Z"/><path class="cls-2" d="M199.45,91.34c-10.63,44.4-22.64,158.92-22.64,158.92-27.66-20.41-52.95-17.3-58-16.4a196,196,0,0,0,9.88,17.31s28-6.64,59,16.21c0,0,18.06-172.1,29.48-176.15Z"/><polygon class="cls-4" points="128.29 146.36 123.13 171.42 58.29 159.63 58.27 159.63 56.79 130.15 69.32 130.15 128.29 146.36"/><polygon class="cls-2" points="68.28 130.15 58.29 159.63 58.27 159.63 56.79 130.15 68.28 130.15"/><ellipse class="cls-4" cx="126.08" cy="157.39" rx="7.37" ry="16.95"/><path class="cls-4" d="M87.43,515.64a2.1,2.1,0,0,1-2.11-2.1V157.39a2.14,2.14,0,0,1,3-2.08,2.19,2.19,0,0,1,1.26,2v356a2.18,2.18,0,0,1-2.1,2.25Z"/><path class="cls-4" d="M118.7,578.29a2.27,2.27,0,0,1-2.21-1.82L85.54,417.77a2.25,2.25,0,0,1,4.09-1.66L171.45,540.9a2.25,2.25,0,0,1-3.77,2.47h0L92.16,428.17,120.92,575.6a2.26,2.26,0,0,1-1.78,2.65h0A3.27,3.27,0,0,1,118.7,578.29Z"/><path class="cls-4" d="M2.25,550.28a2.25,2.25,0,0,1-1.88-3.49l85.5-130.45a2.25,2.25,0,1,1,3.76,2.47L4.14,549.26A2.26,2.26,0,0,1,2.25,550.28Z"/><path class="cls-7" d="M625.46,90.18l59.34.36s97.65,52,29.11,159.58c0,0-28-6.64-59,16.21C655,266.33,636.89,94.23,625.46,90.18Z"/><path class="cls-2" d="M643.11,91.34c10.63,44.4,22.65,158.92,22.65,158.92,27.66-20.41,52.94-17.3,58-16.4a195.91,195.91,0,0,1-9.87,17.31s-28-6.64-59,16.21c0,0-18.06-172.1-29.49-176.15Z"/><polygon class="cls-4" points="714.28 146.36 719.44 171.42 784.27 159.63 784.3 159.63 785.77 130.15 773.24 130.15 714.28 146.36"/><polygon class="cls-2" points="774.29 130.15 784.27 159.63 784.3 159.63 785.77 130.15 774.29 130.15"/><ellipse class="cls-4" cx="716.49" cy="157.39" rx="7.37" ry="16.95"/><path class="cls-4" d="M755.33,515.64a2.1,2.1,0,0,1-2.11-2.1V157.41a2.25,2.25,0,0,1,1.6-2.21,2.15,2.15,0,0,1,2.61,2.19v356a2.18,2.18,0,0,1-2.1,2.25Z"/><path class="cls-4" d="M723.86,578.29a3.13,3.13,0,0,1-.43,0,2.26,2.26,0,0,1-1.78-2.65l28.76-147.43-75.52,115.2a2.25,2.25,0,0,1-3.77-2.47h0l81.81-124.79a2.25,2.25,0,0,1,4.1,1.66l-31,158.7A2.26,2.26,0,0,1,723.86,578.29Z"/><path class="cls-4" d="M840.31,550.28a2.23,2.23,0,0,1-1.88-1l-85.5-130.45a2.25,2.25,0,0,1,3.77-2.47h0l85.5,130.45a2.26,2.26,0,0,1-.65,3.12A2.28,2.28,0,0,1,840.31,550.28Z"/><path class="cls-4" d="M369.93,359.38l16.14-4.5s6.33-1.26,2.46-13.61S377,332.38,377,332.38l-14.32,4.16L357,338.29,365,349.44l.67,7.44Z"/><polygon class="cls-4" points="338.74 326.75 333.68 346.98 359.63 372.13 361.86 372.69 367.81 371.01 372.87 350.79 367.74 345.39 372.99 344.02 361.8 333.15 355.96 334.38 351.27 329.73 354.44 328.47 354.73 327.28 350.9 324.26 338.74 326.75"/><polygon class="cls-7" points="363.05 355.28 359.7 368.67 344.24 354.05 348.11 340.48 363.05 355.28"/><polygon class="cls-8" points="338.74 326.75 338.03 329.59 363.83 354.69 366.07 355.25 371.83 353.69 372.15 353.68 372.87 350.79 367.74 345.39 372.99 344.02 361.8 333.15 355.96 334.38 351.27 329.73 354.44 328.47 354.73 327.28 350.9 324.26 338.74 326.75"/><ellipse class="cls-7" cx="350.66" cy="326.49" rx="1.46" ry="2.15" transform="translate(-51.22 587.36) rotate(-75.94)"/><ellipse class="cls-7" cx="367.05" cy="348.14" rx="1.46" ry="2.15" transform="translate(-59.81 619.65) rotate(-75.94)"/><path class="cls-9" d="M380.66,384.58l-3.52-12s9.15-21.83-1.41-23.94-11.27,20.42-11.27,20.42l4.23,13.37Z"/><circle class="cls-9" cx="315.3" cy="333.34" r="27.97"/><path class="cls-9" d="M324.35,353.08s1.65,20.56,5.76,22.21-44.42,13.16-44.42,13.16l12.34-14s2.47-21.39-3.29-26.33Z"/><path class="cls-7" d="M363.76,378.24,375,376.83s13.38,7,13.38,16.19S396.15,417,396.15,417s5.63,19.71-7,21.12S365.17,417,365.17,417Z"/><path class="cls-10" d="M370.1,490.18s24.64-23.24,31.68-21.83,21.12,3.52,21.12,14.08-23.23,35.2-23.23,35.2-17.6,38.72-34.5,40.13a293,293,0,0,0-33.09,4.93s7.74,28.16,3.52,35.9-20.42,16.9-21.82,16.2-21.12-19-29.57-45.06-14.08-45.76-6.34-47.17S370.1,490.18,370.1,490.18Z"/><path class="cls-10" d="M420.79,480.32s4.92-.7,4.22,11.27-2.82,54.91-6.34,63.36-4.22,18.3-2.81,21.82,4.22,9.15-.71,9.86-25.34-2.12-27.45-2.82-4.23-12.67-2.82-12.67,4.93-.71,3.52-5.63-2.11-4.93,0-6.34,7.75-3.52,6.34-4.93-2.82-34.49-2.82-34.49Z"/><path class="cls-10" d="M413.75,584.51s12-3.52,13.37,4.23c0,0,2.11,12-7,16.19a112.67,112.67,0,0,0-16.89,9.86s-14.79,5.63-15.49-1.41S390.51,581,390.51,581Z"/><path class="cls-10" d="M334.19,593l-22.53-18.3s4.23,22.53-1.4,26.75l-2.58,7.52,7.21,5.9S337,611.27,334.19,593Z"/><path class="cls-10" d="M302.51,562s14.79,4.22,12.67,19-4.82,30.85-4.82,30.85-.81,39.56-11.37,42.37-13.37-2.81-13.37-2.81-12-30.91-8.45-40.13c4.3-11.16,10.5-23.69,8.45-27.46S287,559.87,302.51,562Z"/><path class="cls-7" d="M294.06,367.68s5.64.7,14.79,2.11,15.49-5.63,20.41-4.22S375,376.83,375,376.83l-6.33,48.58s7.74,56.32,6.33,66.18,16.9,8.44,6.34,20.41-28.86,22.53-66.18,19-42.24-2.82-42.24-8.45,8.45-53.5,5.64-57.73-8.45-9.15-5.64-14.08,5.64-7.74,1.41-12S268,430.34,268,428.22s-9.86-36.6-9.86-36.6,4.22-16.9,9.15-17.6,9.15-4.23,12.67-4.23,5.64.71,7.75,0Z"/><path class="cls-10" d="M361.58,323.53c-.37-1.63-2.14-7.07-5.74-8.39-2.64-1-7.55,1.08-10,.74l-.32-.9a20.74,20.74,0,0,0-1.3-5.14,26.27,26.27,0,0,0-14.43-14.7C321.75,291.77,309,289,298,297.81c-15.18,12.11-12.5,30.23-11.4,35.26.18.84.34,1.68.47,2.53.68,4.43,2.64,5,2.64,5l-.11-.36,13.71,1.33,7.41-1.26c.12.72.17,1.15.17,1.15,21.62-3.3,34.2-14.69,36.25-16.67a21.75,21.75,0,0,0,8.38,3.56C360.24,328.94,361.94,325.16,361.58,323.53Zm-55.72,10.89-17.41-.63c-.25-4.76,1-10.31,8-10.6,6.75-.27,10.43,5.22,12.38,10.24Z"/><ellipse class="cls-10" cx="310.22" cy="292.63" rx="3.08" ry="1.17" transform="translate(-44.81 56.36) rotate(-9.69)"/></g></g></svg>