<svg xmlns="http://www.w3.org/2000/svg" viewBox="0 0 826 662"><defs><style>.cls-1{fill:#00bbf0;}.cls-2{fill:#ffb6b6;}.cls-3{fill:#2f2e41;}.cls-4{fill:#3f3d56;}.cls-5{fill:#fff;}.cls-6{fill:#f1f1f1;}.cls-7{fill:#ff6582;}.cls-8{fill:#005792;}.cls-9{fill:#e5e5e5;}.cls-10{fill:#e4e4e4;}.cls-11{fill:#cacaca;}</style></defs><g id="Capa_2" data-name="Capa 2"><g id="Capa_1-2" data-name="Capa 1"><ellipse class="cls-1" cx="413" cy="331" rx="413" ry="331"/><polygon class="cls-2" points="761.82 552.1 754.52 554.31 742.05 528.67 752.82 525.4 761.82 552.1"/><path class="cls-3" d="M765.94,558.24l-23.52,7.14-.09-.28a9,9,0,0,1,6.22-11.47h0l3.25-4.39,9.06.66,2-.63Z"/><polygon class="cls-2" points="692.58 558.97 684.84 558.97 681.16 530.63 692.58 530.63 692.58 558.97"/><path class="cls-3" d="M694.45,566.05H670.19v-.78a9.2,9.2,0,0,1,9.44-9h0l4.43-3.36,8.27,3.36h2.12Z"/><path class="cls-2" d="M656.09,269.34a5.75,5.75,0,0,0,1,8.38,6.77,6.77,0,0,0,.92.58l-3.67,20.9,10.6-4.47,1.86-19.16a5.86,5.86,0,0,0-3.08-7.95A6.54,6.54,0,0,0,656.09,269.34Z"/><path class="cls-3" d="M753.23,442.66c-.48,0,1.31-22.07-5-26.17s-58.52-6.16-58.52-6.16l-3.24,4s-.3,1.89-5.21,17.28l-2,85.89c-.2,8.37-1.74,18.89,1.94,21l1.79,8.88h9.86l5.44-14.67a18,18,0,0,0,2.84-12l3-12.62a1.53,1.53,0,0,1-.43-.72A7.05,7.05,0,0,1,704.9,502a9.6,9.6,0,0,1,.86-1.05l10.89-46.22,14.69,54.07L740.4,528c-.89,2-.3,3.84,1.33,5.53-.6,1.57,2,2.68,3.12,4.72l3.51,6.24,9.85-5.1.89-5.1c.6-1.51-1-2.51-2.19-5.65,2.21-2.22,2.09-4.39,0-6.5l-4.57-15.24.93-7V442.66Z"/><ellipse class="cls-2" cx="711.56" cy="295.2" rx="17.11" ry="16.24"/><path class="cls-3" d="M728.78,297.53l-.29-.54c-.43-.83-4-7.72-4.51-9.5l-4.55.51H707.57l1.65-2.34-4.36.54a10.28,10.28,0,0,0-4.44,1.59,6.52,6.52,0,0,0-2,2c-1.56,2.53-3.94,6.66-4,6.7l-.23.4-2-3.15c0-.13-2.47-12.25,5.72-16.36a13.35,13.35,0,0,1,12.54-6.79,5.55,5.55,0,0,1,3.67-1.73c2-.1,4,.87,6,2.89,2.69,2.69,6.38,6.36,8.61,10.44l.61.83a6.27,6.27,0,0,1,1.23,4.08,12.92,12.92,0,0,1-.48,6.94Z"/><path class="cls-4" d="M752.27,326.1l-18.6-4.94-9.47-6.67-18.6,2.82-.08.1c-3.24,4-10.22,7.62-15.48,8.29a20.9,20.9,0,0,0-2.21.4l-1.78,31V384.8a1.64,1.64,0,0,1,1.12,1.18,21.31,21.31,0,0,1-.14,8.53,13.92,13.92,0,0,1-1,2.85,7.18,7.18,0,0,1,0,6.54c-1.59,1.44-1.39,3,0,4.66v5.81c30.19,23.91,61.68,3.44,61.68,3.44l-1-45.51Z"/><path class="cls-4" d="M692.4,330.36l-4.17-4.26-23-2.47,2.16-33.51-12.54-8.49-5.68,29.08c-1.95,1.61-2.31,3.19-.92,4.74-1.56,3-2,5.38-1.43,7.34l-1.18,6,42.55,28.28Z"/><path class="cls-2" d="M749.08,439.94a5.78,5.78,0,0,1,1.9-8.23,7,7,0,0,1,1-.49l-1.31-21.14,10,5.51-.3,19.23a5.92,5.92,0,0,1-3.95,7.6,6.48,6.48,0,0,1-7.37-2.48Z"/><path class="cls-4" d="M745.68,331.39l7-5.29s7.15,3.75,9.32,10.45,6,44.89,6,44.89l.59,14.21c.75,2.26.55,4.27-1.24,5.87,2.7,2.64,2.29,4.85-1.38,6.58l-3.82,22.35-12-2.36L751.66,384l-9.78-28.38Z"/><path class="cls-4" d="M268,156.06h-2.8V92.87c0-20.36-17.39-36.87-38.85-36.87H83.9C62.42,56,45,72.51,45,92.87V442.4c0,20.36,17.4,36.87,38.86,36.87H226.31c21.49,0,38.9-16.51,38.9-36.87V201.22H268Z"/><path class="cls-5" d="M227.85,65.74H208.18a12.65,12.65,0,0,1-7.43,16.76,14.12,14.12,0,0,1-5.11,1H115.57c-7.48,0-13.55-5.76-13.55-12.86a12.32,12.32,0,0,1,1-4.85H85.17c-16,0-29,12.32-29,27.52V442c0,15.2,13,27.52,29,27.52H227.85c16,0,29-12.32,29-27.52h0V93.23c0-15.18-13-27.49-29-27.49Z"/><path class="cls-6" d="M226.29,196A64,64,0,0,1,217,229.1C197.77,261,154.93,272,121.34,253.74a68.46,68.46,0,0,1-26-24.64c-.62-1-1.21-2.06-1.77-3.11-17.42-32.81-3.53-72.81,31-89.34s76.72-3.35,94.14,29.45A63.7,63.7,0,0,1,226.29,196Z"/><ellipse class="cls-7" cx="159.84" cy="194.55" rx="13.4" ry="12.72"/><path class="cls-8" d="M93.6,225.56c5.91-6.05,13.8-15.67,21.2-8.72,3.72,3.28,9.53,11.39,15.1,6.09l43.45-41.24a9,9,0,0,1,12.21.07l.13.14,36.2,36.94a63.23,63.23,0,0,1-4.86,9.83H95.37Z"/><path id="a69ed34c-3aa3-4521-988a-f33ab8935c86" class="cls-8" d="M188.79,331.39a1.77,1.77,0,1,0,0,3.54h19.55a1.86,1.86,0,0,0,1.79-1.15,1.79,1.79,0,0,0-1.75-2.39Z"/><path id="a82b6965-e745-4a79-ac21-2b08adebfabf" class="cls-9" d="M103.57,305.71a1.88,1.88,0,0,0-1.8,1.18,1.78,1.78,0,0,0,1.71,2.36H208.83a1.87,1.87,0,0,0,1.8-1.17,1.79,1.79,0,0,0-1.71-2.37Z"/><path id="a01cc774-2c01-4baa-ba73-f6c316fae153" class="cls-9" d="M103.48,318.11a1.77,1.77,0,1,0,0,3.54H208.92a1.77,1.77,0,1,0,0-3.54H103.48Z"/><path id="f6ecfbd0-b722-47f2-8687-80b685eaa1e2" class="cls-8" d="M188.79,412a1.79,1.79,0,0,0-1.75,2.39,1.87,1.87,0,0,0,1.79,1.16h19.51a1.87,1.87,0,0,0,1.79-1.16,1.79,1.79,0,0,0-1.75-2.39Z"/><path id="beaff243-1f9b-420c-bc28-f0641d12fad8" class="cls-9" d="M103.57,387.18a1.86,1.86,0,0,0-1.8,1.18,1.78,1.78,0,0,0,1.71,2.36H208.92a1.77,1.77,0,1,0,0-3.54H103.57Z"/><path id="a8605179-8b03-4e4a-93a2-1a820418a8d0" class="cls-9" d="M103.57,399.58a1.87,1.87,0,0,0-1.8,1.17,1.79,1.79,0,0,0,1.71,2.37H208.83a1.86,1.86,0,0,0,1.8-1.18,1.78,1.78,0,0,0-1.71-2.36Z"/><path class="cls-10" d="M646,249.42l-14.46-6.21c-.25,6.18-5.72,11-12.23,10.77a12.37,12.37,0,0,1-4.41-1l-63.49-27.25a11,11,0,0,1-5.89-14.8,11.24,11.24,0,0,1,2.63-3.51l-13.51-5.79c-12.49-5.36-27.19-.1-32.83,11.75L372.27,485.33c-5.65,11.85-.1,25.8,12.39,31.16h0L496,564.28c12.49,5.36,27.19.09,32.83-11.76h0L658.43,280.58c5.65-11.85.1-25.8-12.39-31.16Z"/><path class="cls-5" d="M517.16,378.91c-19.85-8.56-33.38-26.51-35.5-47.1-.1-1-.18-2-.22-3.06a54.44,54.44,0,0,1,5.36-26.22c13.85-29,49.89-41.93,80.5-28.78s44.18,47.35,30.33,76.39A57.88,57.88,0,0,1,585.42,367a58.76,58.76,0,0,1-7.55,6.13A63.82,63.82,0,0,1,517.16,378.91Zm49.39-103.65c-29.72-12.71-64.66-.2-78.12,28a52.85,52.85,0,0,0-5.2,25.45c0,1,.11,2,.21,3,3.12,30.81,32,53.39,64.43,50.43a61,61,0,0,0,29-10.36,56.86,56.86,0,0,0,7.33-6c23-22,22.78-57.48-.39-79.27a59.38,59.38,0,0,0-17.21-11.24Z"/><polygon class="cls-5" points="521.48 272.96 523.16 272.36 565.72 377.8 564.04 378.41 521.48 272.96"/><polygon class="cls-5" points="485.35 345.63 596.47 305.25 597.11 306.83 485.99 347.22 485.35 345.63"/><path class="cls-5" d="M541.36,461.29l-105.11-45.1a3,3,0,0,1-1.61-4.05l9.89-20.76a3.31,3.31,0,0,1,4.27-1.52L553.91,435a3,3,0,0,1,1.61,4.05l-9.89,20.75A3.3,3.3,0,0,1,541.36,461.29Zm-93.3-69.88a1.47,1.47,0,0,0-1.9.68l-9.88,20.75a1.33,1.33,0,0,0,.71,1.8l105.11,45.1a1.47,1.47,0,0,0,1.9-.68l9.89-20.75a1.34,1.34,0,0,0-.72-1.8Z"/><path class="cls-5" d="M515.9,514.73,410.79,469.62a3,3,0,0,1-1.61-4.05l9.89-20.75a3.31,3.31,0,0,1,4.27-1.53L528.45,488.4a3,3,0,0,1,1.61,4.05l-9.89,20.75A3.31,3.31,0,0,1,515.9,514.73Zm-93.3-69.89a1.48,1.48,0,0,0-1.9.68l-9.89,20.75a1.35,1.35,0,0,0,.72,1.81l105.11,45.1a1.48,1.48,0,0,0,1.9-.68l9.88-20.75a1.34,1.34,0,0,0-.71-1.81Z"/><path class="cls-3" d="M475.28,379.52a64.83,64.83,0,0,0-13.63-28,91.13,91.13,0,0,0-24.91-20.82,114.05,114.05,0,0,0-31.89-12.41c-14-3.18-28.42-4.22-42.77-4.09s-28.86,1.42-43.22,2.85l-5.48.55c-1.7.17-1.72,2.72,0,2.55,14.15-1.43,28.32-2.84,42.56-3.28s28.33.1,42.23,2.66a116.66,116.66,0,0,1,33.08,11.09,93.13,93.13,0,0,1,25.54,19.28,64.66,64.66,0,0,1,15,26.55c.33,1.24.62,2.49.88,3.74C473,381.8,475.6,381.12,475.28,379.52Z"/><path class="cls-3" d="M323,299.35,301.52,321a1.23,1.23,0,0,0,0,1.82,1.14,1.14,0,0,0,.25.18l19.36,8.78c1.55.71,2.92-1.49,1.36-2.2l-19.37-8.78.28,2,21.46-21.66c1.18-1.2-.71-3-1.9-1.81Z"/><path class="cls-11" d="M779.93,566.94H370.36a.78.78,0,0,1-1.07-.78,1,1,0,0,1,1.06-1H779.93a1,1,0,0,1,1.07,1,.78.78,0,0,1-1.06.79Z"/></g></g></svg>