<?xml version="1.0"?>
<svg xmlns="http://www.w3.org/2000/svg" xmlns:xlink="http://www.w3.org/1999/xlink" xmlns:svgjs="http://svgjs.com/svgjs" version="1.1" width="512" height="512" x="0" y="0" viewBox="0 0 512 512" style="enable-background:new 0 0 512 512" xml:space="preserve"><g><g xmlns="http://www.w3.org/2000/svg" id="Filled_outline" data-name="Filled outline"><rect fill="#e0e0de" height="432" rx="32" width="240" x="136" y="56" data-original="#e0e0de" style=""/><path d="m136 104h240v320h-240z" fill="#348fd9" data-original="#348fd9" style=""/><path d="m160.231 486.94a31.715 31.715 0 0 0 7.769 1.06h176a32 32 0 0 0 32-32v-32h-189.041z" fill="#d6d6d4" data-original="#d6d6d4" style=""/><path d="m344 56h-.767l-20.384 48h53.151v-16a32 32 0 0 0 -32-32z" fill="#d6d6d4" data-original="#d6d6d4" style=""/><path d="m186.959 424h189.041v-320h-53.151z" fill="#3086cd" data-original="#3086cd" style=""/><path d="m232 376v-48a32 32 0 0 0 -32-32h-16l8-32-56 32v112h64a32 32 0 0 0 32-32z" fill="#3086cd" data-original="#3086cd" style=""/><path d="m428.211 283.682-52.211-67.682v128l-36-36a28.284 28.284 0 0 0 -40 40l52 52-3.585 5.378a70.053 70.053 0 0 0 3.585 82.622h96v-151.644a80 80 0 0 0 -19.789-52.674z" fill="#fec9a3" data-original="#fec9a3" style=""/><path d="m200 184h-64l8 40-56-40h-32a32 32 0 0 1 -32-32v-96a32 32 0 0 1 32-32h144a32 32 0 0 1 32 32v96a32 32 0 0 1 -32 32z" fill="#ffb531" data-original="#ffb531" style=""/><path d="m152 200h64a32 32 0 0 0 32-32v-64h-112v118.857l24 17.143z" fill="#3086cd" data-original="#3086cd" style=""/><path d="m184 280h-16l8-32-56 32h-64a32 32 0 0 0 -32 32v48a32 32 0 0 0 32 32h128a32 32 0 0 0 32-32v-48a32 32 0 0 0 -32-32z" fill="#60d1e0" data-original="#60d1e0" style=""/><path d="m184 280h-1.54c-32.73 49.255-78.785 87.388-114.2 112h115.74a32 32 0 0 0 32-32v-48a32 32 0 0 0 -32-32z" fill="#5ac6d4" data-original="#5ac6d4" style=""/><path d="m408 384a7.971 7.971 0 0 1 -5.656-2.344l-32-32a8 8 0 0 1 11.312-11.312l32 32a8 8 0 0 1 -5.656 13.656z" fill="#f7a468" data-original="#f7a468" style=""/><path d="m220.834 31.894c-55.398 69.149-132.834 112.106-188.622 141.327a31.792 31.792 0 0 0 23.788 10.779h32l56 40-8-40h64a32 32 0 0 0 32-32v-96a31.781 31.781 0 0 0 -11.166-24.106z" fill="#ffa912" data-original="#ffa912" style=""/><path d="m80 96h64v48h-64z" fill="#f35244" data-original="#f35244" style=""/><g fill="#de4132"><circle cx="92" cy="76" r="20" fill="#de4132" data-original="#de4132" style=""/><circle cx="132" cy="76" r="20" fill="#de4132" data-original="#de4132" style=""/><path d="m144 112 32-16v48l-32-16z" fill="#de4132" data-original="#de4132" style=""/></g><path d="m376 216v83.692l40.519-31.168z" fill="#fec093" data-original="#fec093" style=""/><path d="m488 120v96a32 32 0 0 1 -32 32h-40l-56 40 8-40h-72a31.98 31.98 0 0 1 -32-32v-96a32 32 0 0 1 32-32h160a31.974 31.974 0 0 1 32 32z" fill="#4db7e5" data-original="#4db7e5" style=""/><path d="m488 120v96a32 32 0 0 1 -32 32h-40l-56 40 8-40h-72a31.9 31.9 0 0 1 -15.81-4.17c74.72-35.38 141.88-84.74 191.73-151.6a32 32 0 0 1 16.08 27.77z" fill="#48add9" data-original="#48add9" style=""/><circle cx="392" cy="144" fill="#f35244" r="24" data-original="#f35244" style=""/><path d="m488 216a32 32 0 0 1 -32 32h-40l-56 40 8-40h-72a31.98 31.98 0 0 1 -32-32l64-48 36.38 27.28 27.62 20.72 48-32z" fill="#7eb457" data-original="#7eb457" style=""/><path d="m488 216a32 32 0 0 1 -32 32h-40l-56 40 8-40h-72a31.9 31.9 0 0 1 -15.81-4.17 581.47 581.47 0 0 0 84.19-48.55l27.62 20.72 48-32z" fill="#77ad50" data-original="#77ad50" style=""/><path d="m248 448h16v16h-16z" fill="#000000" data-original="#000000" style=""/><path d="m56 192h29.438l53.914 38.512a8 8 0 0 0 12.492-8.082l-6.086-30.43h54.242a40.047 40.047 0 0 0 40-40v-96a40.047 40.047 0 0 0 -40-40h-144a40.047 40.047 0 0 0 -40 40v96a40.047 40.047 0 0 0 40 40zm-24-136a24.027 24.027 0 0 1 24-24h144a24.027 24.027 0 0 1 24 24v96a24.027 24.027 0 0 1 -24 24h-64a8 8 0 0 0 -7.844 9.57l4.032 20.16-39.54-28.242a8 8 0 0 0 -4.648-1.488h-32a24.027 24.027 0 0 1 -24-24z" fill="#000000" data-original="#000000" style=""/><path d="m72 96v48a8 8 0 0 0 8 8h64a8 8 0 0 0 8-8v-3.055l20.422 10.211a8 8 0 0 0 11.578-7.156v-48a8 8 0 0 0 -11.578-7.156l-20.422 10.211v-3.055c0-.133-.069-.244-.076-.375a27.962 27.962 0 1 0 -39.924-39.159 27.962 27.962 0 1 0 -39.924 39.159c-.007.131-.076.242-.076.375zm64 40h-48v-32h48zm32-27.055v22.11l-16-8v-6.11zm-36-44.945a12 12 0 1 1 -12 12 12.013 12.013 0 0 1 12-12zm-40 0a12 12 0 1 1 -12 12 12.013 12.013 0 0 1 12-12z" fill="#000000" data-original="#000000" style=""/><path d="m456 80h-72.809a40.067 40.067 0 0 0 -39.191-32h-88v16h88a23.96 23.96 0 0 1 22.526 16h-70.526a40.047 40.047 0 0 0 -40 40v96a40.047 40.047 0 0 0 40 40h62.242l-6.086 30.43a8 8 0 0 0 12.492 8.082l3.352-2.394v32.57l-22.344-22.344a36.283 36.283 0 1 0 -51.312 51.312l47.344 47.344a75.171 75.171 0 0 0 -7.513 15h-206.175v40a40.047 40.047 0 0 0 40 40h280a8 8 0 0 0 8-8v-151.68a87.6 87.6 0 0 0 -21.422-57.527l-17.022-22.074 1.006-.719h37.438a40.047 40.047 0 0 0 40-40v-96a40.047 40.047 0 0 0 -40-40zm-160 16h160a24.027 24.027 0 0 1 24 24v81.052l-35.562-23.708a8.01 8.01 0 0 0 -8.876 0l-43.289 28.856-59.473-44.6a7.992 7.992 0 0 0 -9.594 0l-51.206 38.4v-80a24.027 24.027 0 0 1 24-24zm-152 360v-24h185.716a77.928 77.928 0 0 0 7.806 48h-169.522a24.027 24.027 0 0 1 -24-24zm278.219-167.059a72 72 0 0 1 17.781 47.379v143.68h-83.961a61.984 61.984 0 0 1 -8.687-53.727 60.021 60.021 0 0 1 7.687-16.453l3.6-5.359a8 8 0 0 0 -.985-10.117l-52-52a20.284 20.284 0 0 1 28.688-28.684l68 68 11.312-11.312-29.654-29.66v-60l20.528-14.663zm33.781-48.941h-40a8 8 0 0 0 -4.648 1.488l-39.54 28.242 4.032-20.16a8 8 0 0 0 -7.844-9.57h-72a23.973 23.973 0 0 1 -23.625-20.285l55.625-41.715 59.2 44.4a7.991 7.991 0 0 0 9.235.258l43.565-29.045 39.6 26.4a23.986 23.986 0 0 1 -23.6 19.987z" fill="#000000" data-original="#000000" style=""/><path d="m392 176a32 32 0 1 0 -32-32 32.034 32.034 0 0 0 32 32zm0-48a16 16 0 1 1 -16 16 16.019 16.019 0 0 1 16-16z" fill="#000000" data-original="#000000" style=""/><path d="m56 400h128a40.047 40.047 0 0 0 40-40v-48a40.047 40.047 0 0 0 -40-40h-5.75l5.508-22.059a8 8 0 0 0 -11.727-8.886l-54.156 30.945h-61.875a40.047 40.047 0 0 0 -40 40v48a40.047 40.047 0 0 0 40 40zm-24-88a24.027 24.027 0 0 1 24-24h64a8 8 0 0 0 3.969-1.055l39.726-22.7-3.453 13.813a8 8 0 0 0 7.758 9.942h16a24.027 24.027 0 0 1 24 24v48a24.027 24.027 0 0 1 -24 24h-128a24.027 24.027 0 0 1 -24-24z" fill="#000000" data-original="#000000" style=""/><path d="m48 312h88v16h-88z" fill="#000000" data-original="#000000" style=""/><path d="m152 312h40v16h-40z" fill="#000000" data-original="#000000" style=""/><path d="m48 344h144v16h-144z" fill="#000000" data-original="#000000" style=""/></g></g></svg>
