<svg xmlns="http://www.w3.org/2000/svg" viewBox="0 0 826 662"><defs><style>.cls-1{fill:#00bbf0;}.cls-2{fill:#e6e6e6;}.cls-3{fill:#fff;}.cls-4{fill:#005792;}.cls-5{fill:#2f2e41;}.cls-6{fill:#ffb8b8;}.cls-7{fill:#3f3d56;}.cls-8{isolation:isolate;opacity:0.3;}.cls-9{fill:#ccc;}</style></defs><g id="Capa_2" data-name="Capa 2"><g id="Capa_1-2" data-name="Capa 1"><ellipse class="cls-1" cx="413" cy="331" rx="413" ry="331"/><rect class="cls-2" x="94" y="70.8" width="604.78" height="406.29"/><rect class="cls-3" x="111.41" y="121.68" width="569.96" height="331.55"/><rect class="cls-4" x="94" y="70" width="604.78" height="27.03"/><ellipse class="cls-3" cx="113.35" cy="83.93" rx="4.76" ry="5"/><ellipse class="cls-3" cx="131.41" cy="83.93" rx="4.76" ry="5"/><ellipse class="cls-3" cx="149.48" cy="83.93" rx="4.76" ry="5"/><rect class="cls-2" x="163.64" y="155.87" width="146.09" height="262.38"/><rect class="cls-4" x="335.46" y="155.87" width="121.86" height="72.35"/><rect class="cls-2" x="335.46" y="248.1" width="121.86" height="77.92"/><rect class="cls-2" x="335.46" y="346.69" width="121.86" height="72.35"/><rect class="cls-2" x="483.82" y="155.87" width="146.09" height="114.49"/><rect class="cls-2" x="483.82" y="304.55" width="146.09" height="114.49"/><path class="cls-5" d="M573.89,278.65v-24c0-18.51,14.43-34,32.05-33.67,17.06.36,30.77,15,30.77,33h0v24.66a4.34,4.34,0,0,1-4.21,4.44H578.11A4.34,4.34,0,0,1,573.89,278.65Z"/><polygon class="cls-6" points="651.46 599.49 640.37 602.72 623.25 559.31 639.62 554.55 651.46 599.49"/><path class="cls-5" d="M631.57,601.69,653,595.47h0l3.73,14.15h0l-34.86,10.14h0C619.77,611.94,624.13,603.86,631.57,601.69Z"/><polygon class="cls-6" points="536.04 608.28 524.46 608.28 518.96 561.37 536.04 561.37 536.04 608.28"/><path class="cls-5" d="M516.68,605.1h21.63v14.31H503.05C503.05,611.51,509.15,605.1,516.68,605.1Z"/><path class="cls-6" d="M521.94,347.84a9.22,9.22,0,0,0,14.45.9L567,363.2l-2.78-18.08-28.63-11a9.19,9.19,0,0,0-13.36,1.34,10.35,10.35,0,0,0-.27,12.34Z"/><path class="cls-5" d="M585.51,456.55c-9.62,0-19.57-1.5-27.93-6a37.42,37.42,0,0,1-18.5-23.24c-4.36-14.49,1.13-28.73,6.45-42.5,3.29-8.54,6.4-16.6,7.21-24.54l.28-2.82c1.26-12.67,2.34-23.62,8.35-27.72,3.12-2.13,7.31-2.25,12.81-.37L625.85,347,624,450.06l-.31.11C623.37,450.26,605.15,456.55,585.51,456.55Z"/><path class="cls-4" d="M573.27,297.3s25.35-7.89,45.07-4.93c0,0-11.27,65.08-7.51,86.78s-65.25,8.38-51.17-12.33l4.7-24.65s-9.39-9.86-.94-21.7Z"/><path class="cls-5" d="M560.81,454.6l-31.24-6.16,10.9-88.17c.74-2.46,17.63-58.32,25.31-61.34a125.48,125.48,0,0,1,17.05-5l1.11-.23-6.26,9.87-24.94,62.77Z"/><path class="cls-5" d="M544.53,597.65l-40.37-7.06,22.66-97.16,33.7-132.88.34,2.36c0,.18,3.17,17.54,49.89,9.83l.41-.06.12.42,56.47,209.59-46,8.06-42-152.92Z"/><path class="cls-5" d="M600.47,471.1l0-.75c0-.83,2.81-83.2,1.88-116.33s9.31-62,9.42-62.32l.08-.23.23-.07c13.25-4,24.75,7.89,24.87,8l.16.17-3.78,32.72,16.17,119Z"/><ellipse class="cls-6" cx="598.5" cy="258.29" rx="23.06" ry="24.22"/><path class="cls-5" d="M566.32,255.57c0-14.22,11.16-25.74,24.9-25.76h4.7c13.74,0,24.88,11.54,24.9,25.76v.48h-9.93l-3.39-9.81-.67,9.81H601.7l-1.71-5-.34,5H566.32Z"/><path class="cls-5" d="M596.07,286a4.55,4.55,0,0,1-.33-4.64c5-9.94,11.93-28.31,2.69-39.63l-.66-.81H624.6v42.32l-24.38,4.52a3.64,3.64,0,0,1-.74.07A4.15,4.15,0,0,1,596.07,286Z"/><path class="cls-7" d="M488.17,111.11C434.67,63.69,354.69,70.8,309.55,127s-38.38,140.21,15.13,187.64c50,44.35,124,41.37,170.68-6.89L650.84,445.57a11.3,11.3,0,0,0,16.46-1.45,12.7,12.7,0,0,0-1.37-17.29l0,0L510.42,289C547.86,232.56,538.21,155.47,488.17,111.11Zm-10,164.62c-33.83,42.1-93.74,47.44-133.83,11.91S299.16,189.17,333,147.06s93.74-47.44,133.83-11.91h0c40.09,35.53,45.16,98.47,11.34,140.58Z"/><path class="cls-8" d="M344.32,287.64c-37.77-33.49-44.78-91.81-16.11-134.11-1.82,1.92-3.57,3.93-5.27,6-33.82,42.11-28.75,105.05,11.34,140.58s100,30.2,133.82-11.91c1.7-2.11,3.29-4.26,4.78-6.47C438,318.56,382.1,321.12,344.32,287.64Z"/><path class="cls-6" d="M605.9,390.18a9.43,9.43,0,0,0,11.41-7.28,9.91,9.91,0,0,0,.25-1.72l32.33-9.43-13.14-12-28.68,10.79a9.75,9.75,0,0,0-9.47,10A9.88,9.88,0,0,0,605.9,390.18Z"/><path class="cls-5" d="M619.34,385.19l-2-19.63,27-15.65-17.6-22.38,2.87-25.15,7.15-3.22.22.3c3.38,4.56,33,44.65,33,49.61s-5.66,20-13.4,24.11c-7.47,3.92-35.52,11.55-36.71,11.87Z"/><path class="cls-9" d="M759.45,621H401.76a1,1,0,0,1-.94-1c0-.54.42-1,.94-.6H759.45c.51-.38.93.06.93.6A1,1,0,0,1,759.45,621Z"/></g></g></svg>